# xmcd
# 
# Track frame offsets:
#     150
#     13970
#     27225
#     40685
#     55105
#     68240
#     86990
#     106887
#     132075
#     145712
#     158785
#     173207
#     187540
#     201500
# 
# Disc length: 2903
# 
# Revision: 3
# Processed by: cddbd v1.5.2PL0 Copyright (c) Steve Scherf et al.
# Submitted via: fre:ac v1.1beta1pre3
# 
DISCID=b90b550e
DTITLE=Leadbelly - Easy Rider
DYEAR=1998
DGENRE=Blues
TTITLE0=You don't know my mind
TTITLE1=Packin' trunk
TTITLE2=Death letter blues
TTITLE3=Roberta Pt. 1
TTITLE4=My baby quit me
TTITLE5=C.C.Rider
TTITLE6=Matchbox blues
TTITLE7=The bourgeois blues
TTITLE8=The Gallis Pole
TTITLE9=Good morning blues
TTITLE10=Easy ryder
TTITLE11=Alberta
TTITLE12=Midnight special
TTITLE13=Leavin' blues
EXTD=ID3G: 0
EXTT0=
EXTT1=
EXTT2=
EXTT3=
EXTT4=
EXTT5=
EXTT6=
EXTT7=
EXTT8=
EXTT9=
EXTT10=
EXTT11=
EXTT12=
EXTT13=
PLAYORDER=
